<?xml version="1.0" standalone="no"?>
<!DOCTYPE svg PUBLIC "-//W3C//DTD SVG 20010904//EN"
 "http://www.w3.org/TR/2001/REC-SVG-20010904/DTD/svg10.dtd">
<svg version="1.0" xmlns="http://www.w3.org/2000/svg"
 width="40" height="40" viewBox="0 0 512.000000 512.000000"
 preserveAspectRatio="xMidYMid meet">

<g transform="translate(0.000000,512.000000) scale(0.100000,-0.100000)"
fill="#000000" stroke="none">
<path d="M1695 4458 c-3 -13 -4 -401 -3 -863 l3 -840 865 0 865 0 3 840 c1
462 0 850 -3 863 l-5 22 -860 0 -860 0 -5 -22z m998 -211 c54 -32 93 -76 120
-136 24 -54 20 -167 -7 -223 -82 -168 -308 -206 -441 -73 -54 55 -79 116 -78
195 0 76 19 124 70 181 62 68 117 90 219 85 56 -2 82 -9 117 -29z m138 -705
c74 -36 125 -87 161 -160 30 -60 33 -76 37 -174 4 -121 -6 -159 -45 -177 -17
-7 -149 -11 -425 -11 -435 0 -452 2 -465 55 -3 14 -5 76 -3 137 4 101 7 119
34 171 36 72 108 139 178 166 47 19 72 20 267 18 200 -2 218 -4 261 -25z"/>
<path d="M2499 4105 c-27 -15 -59 -69 -59 -100 0 -31 30 -81 59 -98 59 -35
137 -12 166 49 19 41 19 58 -1 100 -28 59 -105 82 -165 49z"/>
<path d="M2394 3411 c-88 -22 -139 -85 -139 -170 l0 -56 305 0 305 0 3 50 c2
41 -2 58 -26 96 -46 72 -78 83 -262 86 -85 1 -169 -2 -186 -6z"/>
<path d="M1433 3015 c-65 -33 -147 -119 -181 -192 l-27 -58 -3 -785 c-3 -761
-2 -786 17 -850 35 -113 122 -205 238 -252 l58 -23 1025 0 1025 0 58 23 c115
47 200 136 237 251 20 65 21 76 18 851 l-3 785 -27 58 c-35 75 -117 160 -184
192 -98 46 -94 53 -94 -159 0 -189 -8 -239 -40 -256 -25 -14 -1955 -14 -1980
0 -32 17 -40 67 -40 256 l0 184 -23 0 c-13 0 -46 -11 -74 -25z m1971 -774 c66
-33 122 -91 155 -160 l26 -56 0 -306 0 -306 -35 -69 c-25 -49 -49 -79 -85
-106 -93 -71 -63 -69 -926 -66 l-774 3 -51 27 c-65 34 -138 115 -158 175 -24
69 -24 617 0 686 28 82 122 169 214 198 14 4 376 7 805 6 l780 -2 49 -24z"/>
<path d="M1770 2088 c-18 -13 -43 -36 -54 -51 -20 -27 -21 -40 -21 -310 0
-266 1 -284 21 -317 11 -19 35 -45 54 -57 l33 -23 754 0 c836 0 786 -4 840 67
l28 36 3 266 c2 166 0 279 -7 301 -6 20 -27 51 -46 70 l-36 35 -768 3 -768 2
-33 -22z m1090 -208 c27 -50 15 -70 -127 -212 -176 -176 -173 -176 -291 -54
-52 53 -82 92 -82 106 0 25 51 80 75 80 24 0 56 -18 93 -53 l32 -31 93 91 c50
51 103 96 117 101 31 11 77 -3 90 -28z"/>
</g>
</svg>
