<?xml version="1.0" standalone="no"?>
<!DOCTYPE svg PUBLIC "-//W3C//DTD SVG 20010904//EN"
 "http://www.w3.org/TR/2001/REC-SVG-20010904/DTD/svg10.dtd">
<svg version="1.0" xmlns="http://www.w3.org/2000/svg"
 width="30" height="30" viewBox="0 0 512.000000 512.000000"
 preserveAspectRatio="xMidYMid meet">

<g transform="translate(0.000000,512.000000) scale(0.100000,-0.100000)"
fill="#000000" stroke="none">
<path d="M2664 5086 l-34 -34 0 -236 0 -236 -315 0 c-346 0 -361 -2 -384 -58
-8 -20 -11 -116 -9 -336 l3 -308 28 -24 c38 -33 96 -33 134 0 l28 24 3 251 3
251 644 0 645 0 0 -931 0 -931 29 -29 c49 -48 126 -35 156 26 13 28 15 89 15
399 l0 366 655 0 655 0 0 -1071 0 -1070 -42 34 c-81 65 -167 108 -286 143 -9
2 -4 19 17 56 45 80 61 155 61 293 0 190 -35 290 -140 396 -183 185 -473 185
-661 -1 -102 -101 -139 -205 -139 -395 0 -137 16 -213 61 -292 16 -29 28 -53
27 -53 -2 0 -40 -13 -84 -29 -129 -44 -247 -132 -332 -246 l-22 -30 -22 30
c-85 114 -203 202 -332 246 -44 16 -82 29 -84 29 -1 0 11 24 27 53 45 79 61
155 61 292 0 190 -35 290 -140 396 -183 185 -473 185 -661 -1 -102 -101 -139
-205 -139 -395 0 -137 16 -213 61 -293 16 -28 28 -52 27 -52 -2 0 -40 -13 -84
-29 -129 -44 -247 -132 -332 -246 l-22 -30 -22 30 c-85 114 -203 202 -332 246
-44 16 -82 29 -84 29 -1 0 11 24 27 53 45 79 61 155 61 292 0 190 -35 290
-140 396 -183 185 -473 185 -661 -1 -102 -101 -139 -205 -139 -395 0 -138 16
-213 61 -293 21 -37 26 -54 17 -56 -119 -35 -205 -78 -285 -143 l-43 -34 0
1230 0 1231 540 0 540 0 0 -530 c0 -576 0 -573 55 -598 41 -19 697 -17 734 3
49 25 52 48 49 334 l-3 263 -28 24 c-41 35 -99 33 -138 -5 l-29 -29 0 -201 0
-201 -220 0 -220 0 0 530 c0 568 0 574 -49 600 -27 14 -1355 14 -1382 0 -52
-28 -49 75 -49 -1889 0 -1390 3 -1826 12 -1846 27 -59 -152 -55 2548 -55 2700
0 2521 -4 2548 55 9 20 12 421 12 1688 0 1521 -1 1665 -16 1686 -32 45 -67 51
-304 51 l-220 0 0 780 c0 583 -3 786 -12 805 -26 57 11 55 -969 55 l-901 0
-34 -34z m1716 -886 l0 -720 -385 0 -384 0 -3 521 -3 521 -33 29 -32 29 -355
0 -355 0 0 170 0 170 775 0 775 0 0 -720z m-3329 -2236 c57 -31 99 -81 125
-149 13 -34 15 -69 13 -167 -4 -116 -6 -126 -35 -178 -53 -94 -156 -148 -260
-137 -90 9 -166 60 -210 139 -27 50 -29 62 -32 183 l-4 130 34 65 c35 68 94
119 162 140 56 17 148 5 207 -26z m1640 0 c57 -31 99 -81 125 -149 13 -34 15
-69 13 -167 -4 -116 -6 -126 -35 -178 -53 -94 -156 -148 -260 -137 -90 9 -166
60 -210 139 -27 50 -29 62 -32 183 l-4 130 34 65 c35 68 94 119 162 140 56 17
148 5 207 -26z m1640 0 c57 -31 99 -81 125 -149 13 -34 15 -69 13 -167 -4
-116 -6 -126 -35 -178 -53 -94 -156 -148 -260 -137 -90 9 -166 60 -210 139
-27 50 -29 62 -32 183 l-4 130 34 65 c35 68 94 119 162 140 56 17 148 5 207
-26z m-2998 -863 c83 -33 174 -105 224 -179 72 -106 76 -130 81 -445 l3 -277
-720 0 -721 0 0 253 c0 277 9 340 58 431 35 65 123 153 188 188 101 54 129 57
494 55 325 -2 337 -3 393 -26z m1640 0 c83 -33 174 -105 224 -179 72 -106 76
-130 81 -445 l3 -277 -720 0 -721 0 0 253 c0 277 9 340 58 431 35 65 123 153
188 188 101 54 129 57 494 55 325 -2 337 -3 393 -26z m1640 0 c83 -33 174
-105 224 -179 72 -106 76 -130 81 -445 l3 -277 -720 0 -721 0 0 253 c0 277 9
340 58 431 35 65 123 153 188 188 101 54 129 57 494 55 325 -2 337 -3 393 -26z"/>
<path d="M3943 4218 c-38 -18 -53 -67 -53 -173 0 -137 23 -175 108 -175 33 0
45 6 66 31 25 29 26 36 26 151 0 119 0 120 -29 149 -31 31 -76 37 -118 17z"/>
<path d="M2502 4035 c-46 -20 -62 -65 -62 -170 0 -97 15 -145 54 -170 36 -24
94 -14 124 20 20 24 22 36 22 146 0 134 -9 160 -62 178 -38 13 -35 13 -76 -4z"/>
<path d="M2942 4035 c-46 -20 -62 -65 -62 -170 0 -97 15 -145 54 -170 36 -24
94 -14 124 20 20 24 22 36 22 146 0 134 -9 160 -62 178 -38 13 -35 13 -76 -4z"/>
<path d="M1949 3541 c-88 -89 43 -219 138 -137 23 20 28 32 28 71 0 39 -5 51
-28 71 -41 35 -99 33 -138 -5z"/>
<path d="M484 3221 c-12 -5 -31 -22 -43 -38 -21 -25 -22 -37 -19 -131 3 -99 4
-105 31 -128 19 -16 40 -24 67 -24 27 0 48 8 67 24 27 23 28 28 31 129 4 103
3 105 -25 136 -30 33 -75 46 -109 32z"/>
<path d="M2502 3215 c-51 -22 -65 -68 -60 -193 4 -104 4 -104 37 -134 29 -26
39 -30 75 -25 27 4 49 15 63 32 21 24 23 36 23 146 0 134 -9 160 -62 178 -38
13 -35 13 -76 -4z"/>
<path d="M2942 3215 c-51 -22 -65 -68 -60 -193 4 -104 4 -104 37 -134 29 -26
39 -30 75 -25 27 4 49 15 63 32 21 24 23 36 23 146 0 134 -9 160 -62 178 -38
13 -35 13 -76 -4z"/>
<path d="M3928 2811 l-33 -29 -3 -114 c-3 -127 4 -151 56 -181 29 -17 39 -18
73 -8 58 17 69 47 69 181 0 122 -6 142 -50 165 -43 22 -76 18 -112 -14z"/>
<path d="M4494 2831 c-46 -20 -54 -47 -54 -176 0 -138 8 -158 69 -176 31 -9
43 -8 70 6 45 23 61 67 61 170 0 87 -14 139 -43 163 -20 17 -77 24 -103 13z"/>
<path d="M907 2659 c-34 -20 -47 -64 -47 -160 0 -90 0 -91 34 -125 25 -24 43
-34 66 -34 23 0 42 10 66 34 34 34 34 35 34 125 0 130 -25 171 -102 171 -18 0
-41 -5 -51 -11z"/>
</g>
</svg>
