<?xml version="1.0" standalone="no"?>
<!DOCTYPE svg PUBLIC "-//W3C//DTD SVG 20010904//EN"
 "http://www.w3.org/TR/2001/REC-SVG-20010904/DTD/svg10.dtd">
<svg version="1.0" xmlns="http://www.w3.org/2000/svg"
 width="30" height="30" viewBox="0 0 512.000000 512.000000"
 preserveAspectRatio="xMidYMid meet">

<g transform="translate(0.000000,512.000000) scale(0.100000,-0.100000)"
fill="#000000" stroke="none">
<path d="M1738 4830 c-433 -159 -798 -296 -811 -305 -73 -47 -75 -168 -5 -231
25 -23 1602 -604 1638 -604 38 0 1614 581 1638 603 71 65 68 185 -6 233 -44
29 -1602 594 -1635 593 -18 0 -386 -130 -819 -289z"/>
<path d="M4095 3925 l-140 -53 -3 -243 c-2 -134 0 -263 3 -287 20 -139 219
-173 279 -49 14 30 16 79 16 361 0 179 -3 326 -7 325 -5 -1 -71 -25 -148 -54z"/>
<path d="M1612 3411 l3 -301 35 -34 c30 -30 91 -55 450 -186 228 -84 429 -154
446 -157 23 -4 138 34 460 151 374 137 433 161 464 192 l35 34 3 300 3 300
-108 -39 c-59 -22 -243 -88 -408 -149 -165 -60 -327 -115 -359 -122 -104 -21
-150 -9 -586 150 -223 82 -413 152 -423 155 -17 7 -18 -8 -15 -294z"/>
<path d="M949 2349 c-132 -19 -250 -83 -322 -174 -202 -253 -126 -634 155
-775 43 -21 99 -42 124 -46 51 -7 43 -24 -12 -24 -17 0 -74 -11 -126 -24 -329
-83 -592 -322 -708 -643 -41 -115 -60 -241 -60 -406 0 -163 13 -203 80 -237
38 -19 58 -20 595 -20 l555 0 0 223 c0 250 13 354 61 502 51 152 119 277 237
434 l23 30 -78 39 c-99 50 -223 89 -308 98 -78 8 -91 19 -33 28 69 11 165 63
234 128 237 222 203 611 -70 790 -100 65 -233 95 -347 77z"/>
<path d="M2478 2349 c-94 -14 -200 -69 -273 -143 -202 -201 -203 -514 -4 -715
67 -68 172 -126 247 -137 37 -5 43 -9 27 -15 -11 -4 -34 -8 -51 -8 -66 -2
-232 -52 -329 -101 -282 -140 -483 -400 -546 -705 -15 -71 -19 -135 -19 -307
l0 -218 1025 0 1025 0 0 173 c0 273 -24 413 -99 573 -54 115 -112 196 -205
290 -93 92 -172 149 -289 205 -85 40 -255 89 -313 89 -50 0 -50 17 0 24 58 9
171 65 225 112 101 88 162 227 162 374 1 149 -38 254 -133 356 -111 118 -286
178 -450 153z"/>
<path d="M4034 2350 c-215 -32 -382 -185 -424 -387 -17 -82 -8 -225 19 -295
65 -169 213 -293 375 -316 50 -7 29 -17 -53 -26 -35 -4 -101 -19 -145 -33 -79
-25 -229 -94 -239 -111 -3 -4 3 -19 14 -32 95 -120 182 -279 229 -418 48 -143
61 -245 67 -499 l6 -233 559 0 c540 0 560 1 598 20 67 34 80 74 80 238 0 82
-7 177 -16 233 -55 321 -259 595 -549 739 -100 50 -266 100 -331 100 -47 0
-51 16 -5 24 21 3 71 22 112 43 166 83 279 263 279 446 0 307 -278 552 -576
507z"/>
</g>
</svg>
