<?xml version="1.0" standalone="no"?>
<!DOCTYPE svg PUBLIC "-//W3C//DTD SVG 20010904//EN"
 "http://www.w3.org/TR/2001/REC-SVG-20010904/DTD/svg10.dtd">
<svg version="1.0" xmlns="http://www.w3.org/2000/svg"
 width="30" height="30" viewBox="0 0 512.000000 512.000000"
 preserveAspectRatio="xMidYMid meet">

<g transform="translate(0.000000,512.000000) scale(0.100000,-0.100000)"
fill="#000000" stroke="none">
<path d="M345 5015 l-25 -24 0 -2431 0 -2431 25 -24 24 -25 1711 0 1711 0 24
25 25 24 0 675 0 676 133 100 134 100 125 0 c155 0 214 10 304 55 126 62 227
195 254 334 14 72 14 1230 0 1302 -25 131 -124 266 -239 328 -104 55 -147 61
-443 61 l-268 0 0 217 0 218 -423 422 -422 423 -1313 0 -1313 0 -24 -25z
m2535 -510 l0 -376 25 -24 24 -25 376 0 375 0 0 -160 0 -160 -188 0 c-134 0
-204 -4 -245 -15 -173 -45 -307 -178 -352 -350 -23 -88 -23 -1262 0 -1350 49
-187 205 -328 395 -358 l70 -11 0 -213 c0 -214 0 -214 25 -238 41 -42 70 -34
188 55 l107 80 0 -560 0 -560 -1600 0 -1600 0 0 2320 0 2320 1200 0 1200 0 0
-375z m425 -5 l260 -260 -263 0 -262 0 0 260 c0 143 1 260 3 260 1 0 119 -117
262 -260z m1145 -928 c72 -35 114 -75 151 -144 l34 -63 0 -645 0 -645 -34 -63
c-38 -70 -70 -101 -145 -140 -48 -25 -61 -26 -231 -32 l-180 -5 -262 -198
-263 -197 0 174 c0 224 4 218 -143 227 -93 6 -112 11 -167 40 -67 35 -107 78
-142 149 l-23 45 0 645 0 645 25 50 c42 86 125 153 215 176 17 4 275 7 575 6
544 -2 545 -2 590 -25z"/>
<path d="M665 4215 l-25 -24 0 -351 0 -351 25 -24 24 -25 351 0 351 0 24 25
25 24 0 351 0 351 -25 24 -24 25 -351 0 -351 0 -24 -25z m615 -375 l0 -240
-240 0 -240 0 0 240 0 240 240 0 240 0 0 -240z"/>
<path d="M1760 4080 l0 -80 480 0 480 0 0 80 0 80 -480 0 -480 0 0 -80z"/>
<path d="M1600 3760 l0 -80 640 0 640 0 0 80 0 80 -640 0 -640 0 0 -80z"/>
<path d="M665 3255 l-25 -24 0 -351 0 -351 25 -24 24 -25 351 0 351 0 24 25
25 24 0 351 0 351 -25 24 -24 25 -351 0 -351 0 -24 -25z m615 -375 l0 -240
-240 0 -240 0 0 240 0 240 240 0 240 0 0 -240z"/>
<path d="M1760 3200 l0 -80 480 0 480 0 0 80 0 80 -480 0 -480 0 0 -80z"/>
<path d="M1600 2880 l0 -80 560 0 560 0 0 80 0 80 -560 0 -560 0 0 -80z"/>
<path d="M1600 2560 l0 -80 560 0 560 0 0 80 0 80 -560 0 -560 0 0 -80z"/>
<path d="M665 2295 l-25 -24 0 -351 0 -351 25 -24 24 -25 351 0 351 0 24 25
25 24 0 351 0 351 -25 24 -24 25 -351 0 -351 0 -24 -25z m615 -375 l0 -240
-240 0 -240 0 0 240 0 240 240 0 240 0 0 -240z"/>
<path d="M1760 2080 l0 -80 480 0 480 0 0 80 0 80 -480 0 -480 0 0 -80z"/>
<path d="M1600 1760 l0 -80 560 0 560 0 0 80 0 80 -560 0 -560 0 0 -80z"/>
<path d="M665 1335 l-25 -24 0 -351 0 -351 25 -24 24 -25 351 0 351 0 24 25
25 24 0 351 0 351 -25 24 -24 25 -351 0 -351 0 -24 -25z m615 -375 l0 -240
-240 0 -240 0 0 240 0 240 240 0 240 0 0 -240z"/>
<path d="M1760 1280 l0 -80 720 0 720 0 0 80 0 80 -720 0 -720 0 0 -80z"/>
<path d="M1600 960 l0 -80 960 0 960 0 0 80 0 80 -960 0 -960 0 0 -80z"/>
<path d="M1600 640 l0 -80 960 0 960 0 0 80 0 80 -960 0 -960 0 0 -80z"/>
<path d="M4080 3360 l0 -80 -80 0 -80 0 0 -80 0 -80 80 0 80 0 0 -80 0 -80 80
0 80 0 0 80 0 80 80 0 80 0 0 80 0 80 -80 0 -80 0 0 80 0 80 -80 0 -80 0 0
-80z"/>
<path d="M3472 3183 c-12 -10 -58 -112 -106 -233 l-86 -215 0 -207 0 -208 80
0 80 0 0 160 0 160 160 0 160 0 0 -160 0 -160 80 0 80 0 0 208 0 207 -86 215
c-48 121 -94 223 -106 233 -16 14 -40 17 -128 17 -88 0 -112 -3 -128 -17z
m197 -250 c24 -60 45 -114 48 -120 4 -10 -23 -13 -117 -13 -94 0 -121 3 -117
13 3 6 24 60 48 120 39 99 44 107 69 107 25 0 30 -8 69 -107z"/>
</g>
</svg>
