<?xml version="1.0" standalone="no"?>
<!DOCTYPE svg PUBLIC "-//W3C//DTD SVG 20010904//EN"
 "http://www.w3.org/TR/2001/REC-SVG-20010904/DTD/svg10.dtd">
<svg version="1.0" xmlns="http://www.w3.org/2000/svg"
 width="30" height="30" viewBox="0 0 512.000000 512.000000"
 preserveAspectRatio="xMidYMid meet">
<metadata>
Created by potrace 1.16, written by Peter Selinger 2001-2019
</metadata>
<g transform="translate(0.000000,512.000000) scale(0.100000,-0.100000)"
fill="#000000" stroke="none">
<path d="M1850 5074 c-463 -62 -888 -273 -1225 -609 -336 -334 -545 -754 -609
-1223 -21 -148 -21 -436 0 -584 75 -546 353 -1036 784 -1381 244 -196 575
-354 872 -417 117 -25 322 -50 410 -50 l67 0 3 -282 c3 -271 4 -285 26 -329
27 -55 83 -113 137 -142 l40 -22 1204 -3 1204 -2 51 23 c74 34 111 70 145 139
l31 61 0 493 0 493 49 64 c80 106 81 113 81 490 l0 330 -24 41 c-14 24 -42 52
-68 66 l-43 25 -377 3 -378 3 -1 102 c-1 56 -1 105 0 110 0 4 10 62 21 130
110 661 -99 1339 -560 1821 -354 370 -815 600 -1315 656 -125 14 -399 11 -525
-6z m550 -169 c436 -62 822 -255 1130 -564 329 -331 521 -739 571 -1216 11
-105 7 -335 -7 -416 l-6 -37 -47 21 c-31 13 -75 22 -136 25 l-90 4 0 232 c-1
201 -4 244 -23 333 -34 154 -76 274 -148 418 -200 403 -547 704 -973 845 -276
92 -539 111 -833 61 -821 -141 -1422 -890 -1385 -1726 23 -517 264 -976 676
-1286 240 -180 571 -307 846 -324 50 -3 109 -8 133 -11 l42 -5 0 -140 0 -139
-62 0 c-210 0 -496 63 -714 155 -643 275 -1089 856 -1189 1549 -26 175 -17
486 19 653 64 301 190 576 375 818 64 85 232 256 321 328 281 227 639 379
1000 426 110 14 387 12 500 -4z m20 -465 c462 -94 847 -381 1059 -791 63 -121
118 -272 146 -399 19 -88 31 -344 21 -453 l-8 -75 -242 -4 -242 -3 -66 -33
c-119 -59 -168 -145 -176 -314 l-5 -108 -356 0 c-218 0 -371 -4 -394 -11 -51
-14 -102 -61 -122 -112 -14 -37 -16 -88 -13 -370 l3 -327 -21 0 c-12 0 -61 7
-110 15 -494 85 -910 398 -1123 846 -61 127 -93 221 -122 359 -30 142 -33 418
-5 560 60 310 202 576 426 800 248 248 553 397 900 440 115 14 330 4 450 -20z
m1555 -1910 c63 -31 85 -78 85 -184 0 -70 -3 -86 -15 -86 -12 0 -15 15 -15 75
0 42 -6 90 -14 109 -28 67 -18 66 -449 66 l-389 0 -29 -29 c-28 -28 -29 -33
-29 -125 0 -91 -1 -96 -21 -96 -21 0 -21 4 -17 94 3 84 7 97 32 131 49 64 51
64 455 65 345 0 367 -1 406 -20z m-115 -230 l0 -40 -285 0 -285 0 0 40 0 40
285 0 285 0 0 -40z m-1140 -362 c0 -84 5 -170 11 -192 6 -21 29 -58 51 -82 71
-77 51 -75 814 -72 l669 3 48 28 c26 15 60 47 75 69 26 41 27 45 30 220 l3
178 259 0 c253 0 260 -1 270 -21 8 -14 11 -107 8 -297 -3 -308 -3 -308 -77
-385 -115 -121 -384 -203 -805 -244 -133 -13 -171 -14 -174 -5 -11 35 -73 111
-116 143 -70 53 -139 72 -239 67 -63 -4 -94 -11 -135 -32 -63 -32 -123 -90
-152 -146 -24 -47 -17 -46 -216 -25 -478 50 -759 154 -833 308 -20 41 -21 60
-21 334 0 224 3 293 13 296 6 3 126 6 265 6 l252 1 0 -152z m1530 3 c0 -144
-1 -151 -22 -165 -20 -14 -99 -16 -660 -16 -625 0 -638 0 -658 20 -18 18 -20
33 -20 165 l0 145 680 0 680 0 0 -149z m-601 -775 c42 -22 89 -81 101 -128 34
-124 -94 -252 -219 -218 -53 14 -116 70 -132 117 -39 120 49 243 174 243 26 0
61 -7 76 -14z m-1194 -81 c164 -54 421 -100 682 -120 l81 -7 7 -36 c20 -105
110 -213 210 -252 45 -18 80 -24 140 -24 96 0 167 28 239 94 50 46 106 147
106 191 0 27 1 27 83 34 318 25 622 86 805 162 9 4 12 -85 12 -422 l0 -427
-39 -39 -39 -39 -1161 0 c-1283 0 -1200 -4 -1241 63 -19 30 -20 53 -20 451 0
394 1 418 18 411 9 -4 62 -22 117 -40z"/>
<path d="M2092 4303 c-7 -3 -19 -18 -27 -33 -19 -36 -20 -184 -2 -220 19 -37
61 -54 99 -41 50 18 57 36 58 149 0 96 -2 105 -25 127 -23 24 -69 32 -103 18z"/>
<path d="M1194 3928 c-25 -12 -44 -48 -44 -85 0 -20 19 -46 73 -100 86 -86
118 -94 168 -44 48 48 36 92 -48 172 -71 69 -101 81 -149 57z"/>
<path d="M2935 3868 c-66 -66 -75 -79 -75 -112 0 -48 36 -86 81 -86 25 0 45
14 105 72 66 64 74 75 74 109 0 48 -26 78 -73 86 -36 6 -40 3 -112 -69z"/>
<path d="M2092 3633 c-7 -3 -19 -18 -27 -33 -20 -39 -22 -651 -2 -689 7 -15
92 -70 227 -149 165 -96 224 -125 252 -126 63 -1 102 57 77 115 -9 22 -54 53
-205 140 l-194 112 0 294 0 294 -25 24 c-23 24 -69 32 -103 18z"/>
<path d="M824 3026 c-51 -22 -62 -95 -21 -134 21 -20 34 -22 128 -22 123 0
149 13 149 76 0 48 -14 70 -51 83 -44 15 -167 13 -205 -3z"/>
<path d="M3244 3031 c-53 -23 -69 -89 -33 -135 20 -25 24 -26 129 -26 124 0
147 10 156 71 5 29 1 41 -19 65 -24 28 -29 29 -119 31 -51 2 -103 -1 -114 -6z"/>
<path d="M1223 2157 c-59 -60 -73 -79 -73 -105 0 -47 37 -84 84 -84 34 0 46 8
108 69 75 75 87 98 68 144 -15 36 -37 49 -81 49 -27 0 -45 -12 -106 -73z"/>
</g>
</svg>
