<?xml version="1.0" standalone="no"?>
<!DOCTYPE svg PUBLIC "-//W3C//DTD SVG 20010904//EN"
 "http://www.w3.org/TR/2001/REC-SVG-20010904/DTD/svg10.dtd">
<svg version="1.0" xmlns="http://www.w3.org/2000/svg"
 width="30" height="30" viewBox="0 0 512.000000 512.000000"
 preserveAspectRatio="xMidYMid meet">

<g transform="translate(0.000000,512.000000) scale(0.100000,-0.100000)"
fill="#000000" stroke="none">
<path d="M482 4580 c-57 -13 -108 -55 -136 -111 l-26 -53 0 -1488 0 -1488
2240 0 2240 0 0 1489 0 1489 -28 53 c-20 39 -41 62 -77 84 l-48 30 -2066 2
c-1136 0 -2081 -2 -2099 -7z m3838 -437 c16 -9 33 -27 39 -40 8 -17 11 -384
11 -1229 l0 -1206 -34 -34 -34 -34 -1737 0 c-1603 0 -1739 1 -1765 17 -16 9
-33 27 -39 40 -15 34 -15 2412 0 2446 6 13 23 31 37 40 25 15 164 16 1760 17
1600 0 1736 -1 1762 -17z"/>
<path d="M960 2880 l0 -1070 1600 0 1600 0 0 1070 0 1070 -1600 0 -1600 0 0
-1070z m1597 505 c235 -113 436 -215 446 -226 23 -29 23 -100 -2 -130 -11 -13
-66 -46 -123 -74 l-103 -50 -5 -317 -5 -316 -30 -44 c-17 -23 -51 -54 -75 -68
l-45 -25 -535 0 -535 0 -45 25 c-24 14 -58 45 -75 68 l-30 44 -5 325 -5 325
-90 46 c-74 39 -93 54 -108 84 -16 32 -17 44 -7 72 6 19 17 40 25 46 36 30
863 419 892 419 21 1 167 -64 460 -204z m1328 -91 c31 -14 65 -64 65 -94 0
-30 -34 -80 -65 -94 -46 -22 -567 -24 -620 -2 -35 15 -65 59 -65 96 0 36 30
81 63 95 50 22 576 21 622 -1z m6 -430 c42 -21 64 -75 49 -120 -6 -18 -23 -43
-37 -54 -24 -19 -40 -20 -324 -20 -198 0 -306 4 -323 11 -76 35 -67 162 14
192 8 3 145 6 303 6 243 1 293 -1 318 -15z m12 -434 c38 -30 52 -80 33 -123
-27 -66 -40 -68 -376 -65 l-298 3 -26 24 c-50 47 -40 141 17 169 14 7 136 11
323 11 287 1 302 0 327 -19z"/>
<path d="M1813 3231 c-155 -74 -279 -138 -275 -141 4 -4 132 -66 285 -139
l277 -132 285 137 c157 75 284 138 283 139 -5 5 -513 247 -543 260 -28 11 -44
5 -312 -124z"/>
<path d="M1600 2585 l0 -235 480 0 480 0 0 225 c0 124 -2 225 -4 225 -2 0 -98
-45 -213 -101 -142 -69 -219 -101 -243 -101 -32 0 -78 20 -449 200 -25 12 -46
22 -48 22 -2 0 -3 -106 -3 -235z"/>
<path d="M141 1194 c-20 -17 -31 -35 -31 -52 0 -15 21 -130 47 -256 52 -255
67 -288 148 -330 l40 -21 2215 0 2215 0 39 21 c82 42 95 70 148 322 26 125 47
241 48 259 0 23 -8 38 -31 57 l-31 26 -2388 0 -2388 0 -31 -26z"/>
</g>
</svg>
