<?xml version="1.0" standalone="no"?>
<!DOCTYPE svg PUBLIC "-//W3C//DTD SVG 20010904//EN"
 "http://www.w3.org/TR/2001/REC-SVG-20010904/DTD/svg10.dtd">
<svg version="1.0" xmlns="http://www.w3.org/2000/svg"
 width="30" height="30" viewBox="0 0 512.000000 512.000000"
 preserveAspectRatio="xMidYMid meet">

<g transform="translate(0.000000,512.000000) scale(0.100000,-0.100000)"
fill="#000000" stroke="none">
<path d="M3045 4829 c-143 -24 -311 -90 -440 -173 -80 -52 -2303 -2268 -2386
-2379 -151 -201 -230 -464 -216 -717 29 -499 309 -924 754 -1144 343 -170 753
-182 1163 -34 149 54 288 131 435 241 124 93 2364 2338 2442 2447 205 288 313
601 317 921 1 118 -7 138 -70 165 -74 31 -22 79 -1176 -1074 -588 -587 -1074
-1080 -1082 -1097 -8 -16 -17 -75 -21 -130 -27 -394 -195 -739 -483 -991 -277
-243 -633 -369 -991 -351 -398 19 -751 248 -933 602 -89 175 -121 308 -121
505 0 155 19 244 78 369 141 296 416 481 740 498 139 6 229 -11 345 -68 120
-60 241 -180 299 -299 118 -241 88 -489 -78 -658 -105 -107 -239 -159 -387
-150 -129 8 -232 67 -300 174 -63 98 -79 213 -44 308 39 102 125 167 251 187
95 15 129 48 129 125 0 28 -8 44 -35 71 l-36 36 -82 -6 c-171 -11 -315 -101
-407 -257 -55 -93 -73 -173 -67 -290 10 -186 96 -350 240 -457 120 -89 228
-124 382 -124 182 0 344 62 487 186 120 104 2203 2196 2238 2248 139 209 168
469 80 725 -85 249 -303 467 -552 552 -46 16 -112 34 -148 39 -75 13 -253 12
-325 0z m375 -249 c105 -35 189 -88 271 -169 124 -124 186 -261 196 -431 4
-71 1 -111 -12 -159 -40 -153 0 -109 -973 -1084 l-897 -897 -7 72 c-33 314
-237 599 -523 729 -117 53 -198 70 -358 77 l-148 7 848 846 c874 871 907 902
1046 964 129 57 227 75 377 70 84 -2 132 -9 180 -25z m1395 -977 c-46 -137
-127 -291 -215 -407 -78 -103 -1656 -1685 -1646 -1651 13 48 35 187 41 260 l7
80 921 923 c507 507 923 918 925 913 2 -6 -13 -58 -33 -118z"/>
</g>
</svg>
